<svg width="762" height="138" viewBox="0 0 762 138" fill="none" xmlns="http://www.w3.org/2000/svg">
<g clip-path="url(#clip0_94_2)">
<path d="M59 5.7735C65.188 2.20085 72.812 2.20085 79 5.7735L118.756 28.7265C124.944 32.2992 128.756 38.9017 128.756 46.047V91.953C128.756 99.0983 124.944 105.701 118.756 109.273L79 132.227C72.812 135.799 65.188 135.799 59 132.227L19.2442 109.274C13.0562 105.701 9.24425 99.0983 9.24425 91.953V46.047C9.24425 38.9017 13.0562 32.2992 19.2442 28.7265L59 5.7735Z" fill="black"/>
<path d="M63.9034 74.2473C63.9034 70.5336 61.8454 67.1258 58.5586 65.397L23.0094 46.6982C19.6799 44.9469 15.6818 47.3614 15.6818 51.1234V93.2483C15.6818 96.8285 17.5957 100.135 20.7 101.919L56.4125 122.438C59.7458 124.353 63.9034 121.947 63.9034 118.102V74.2473Z" fill="white"/>
<path d="M156.29 102V46.58H174.905C178.758 46.58 182.215 47.005 185.275 47.855C188.335 48.6483 190.743 50.0367 192.5 52.02C194.313 54.0033 195.22 56.78 195.22 60.35C195.22 62.8433 194.455 65.2517 192.925 67.575C191.395 69.8983 188.987 71.485 185.7 72.335V72.675C189.667 73.355 192.67 74.7717 194.71 76.925C196.75 79.0217 197.77 81.94 197.77 85.68C197.77 89.42 196.835 92.5083 194.965 94.945C193.095 97.325 190.545 99.11 187.315 100.3C184.142 101.433 180.543 102 176.52 102H156.29ZM168.785 68.85H174.31C177.37 68.85 179.58 68.255 180.94 67.065C182.3 65.8183 182.98 64.1467 182.98 62.05C182.98 60.01 182.272 58.565 180.855 57.715C179.495 56.8083 177.342 56.355 174.395 56.355H168.785V68.85ZM168.785 92.225H175.5C178.9 92.225 181.422 91.6017 183.065 90.355C184.708 89.1083 185.53 87.2383 185.53 84.745C185.53 82.3083 184.708 80.5517 183.065 79.475C181.422 78.3983 178.9 77.86 175.5 77.86H168.785V92.225ZM219.922 103.02C215.105 103.02 211.62 101.49 209.467 98.43C207.313 95.37 206.237 91.1767 206.237 85.85V59.84H218.732V84.235C218.732 87.0683 219.157 89.1367 220.007 90.44C220.913 91.7433 222.528 92.395 224.852 92.395C226.438 92.395 227.855 92.055 229.102 91.375C230.348 90.695 231.68 89.42 233.097 87.55V59.84H245.592V102H235.392L234.457 95.965H234.117C232.247 98.0617 230.178 99.7617 227.912 101.065C225.645 102.368 222.982 103.02 219.922 103.02ZM273.694 103.02C268.367 103.02 264.06 101.065 260.774 97.155C257.544 93.1883 255.929 87.7767 255.929 80.92C255.929 76.33 256.779 72.3917 258.479 69.105C260.235 65.8183 262.502 63.2967 265.279 61.54C268.055 59.7267 270.945 58.82 273.949 58.82C276.272 58.82 278.284 59.2167 279.984 60.01C281.684 60.8033 283.214 61.9083 284.574 63.325H284.914L284.319 56.78V42.415H296.814V102H286.614L285.679 97.665H285.424C283.894 99.195 282.08 100.47 279.984 101.49C277.944 102.51 275.847 103.02 273.694 103.02ZM276.924 92.82C278.34 92.82 279.644 92.5367 280.834 91.97C282.08 91.3467 283.242 90.3267 284.319 88.91V71.825C283.185 70.805 282.024 70.0967 280.834 69.7C279.7 69.2467 278.51 69.02 277.264 69.02C275.734 69.02 274.317 69.445 273.014 70.295C271.71 71.145 270.662 72.4483 269.869 74.205C269.132 75.905 268.764 78.0867 268.764 80.75C268.764 84.8867 269.472 87.9467 270.889 89.93C272.305 91.8567 274.317 92.82 276.924 92.82ZM326.445 119.935C322.762 119.935 319.475 119.538 316.585 118.745C313.752 118.008 311.485 116.847 309.785 115.26C308.142 113.673 307.32 111.633 307.32 109.14C307.32 107.44 307.859 105.882 308.935 104.465C310.069 103.048 311.712 101.802 313.865 100.725V100.385C312.675 99.5917 311.655 98.6283 310.805 97.495C310.012 96.3617 309.615 94.9167 309.615 93.16C309.615 91.7433 310.069 90.3267 310.975 88.91C311.939 87.4933 313.157 86.275 314.63 85.255V84.915C313.1 83.895 311.797 82.45 310.72 80.58C309.644 78.71 309.105 76.5567 309.105 74.12C309.105 70.72 309.927 67.8867 311.57 65.62C313.27 63.3533 315.48 61.6533 318.2 60.52C320.977 59.3867 323.952 58.82 327.125 58.82C329.732 58.82 332.055 59.16 334.095 59.84H351.18V69.02H342.68C343.19 69.6433 343.615 70.465 343.955 71.485C344.352 72.4483 344.55 73.4683 344.55 74.545C344.55 77.775 343.757 80.4383 342.17 82.535C340.64 84.575 338.572 86.105 335.965 87.125C333.359 88.145 330.412 88.655 327.125 88.655C326.332 88.655 325.425 88.5983 324.405 88.485C323.385 88.315 322.365 88.0883 321.345 87.805C320.665 88.2583 320.184 88.7117 319.9 89.165C319.617 89.6183 319.475 90.2133 319.475 90.95C319.475 92.0267 320.042 92.82 321.175 93.33C322.365 93.84 324.179 94.095 326.615 94.095H334.435C339.989 94.095 344.21 94.9167 347.1 96.56C350.047 98.2033 351.52 100.923 351.52 104.72C351.52 107.667 350.5 110.273 348.46 112.54C346.42 114.863 343.502 116.677 339.705 117.98C335.965 119.283 331.545 119.935 326.445 119.935ZM327.125 81.09C328.315 81.09 329.392 80.835 330.355 80.325C331.319 79.815 332.084 79.05 332.65 78.03C333.217 76.9533 333.5 75.65 333.5 74.12C333.5 72.6467 333.217 71.4 332.65 70.38C332.084 69.36 331.319 68.595 330.355 68.085C329.392 67.5183 328.315 67.235 327.125 67.235C325.992 67.235 324.944 67.5183 323.98 68.085C323.017 68.595 322.252 69.36 321.685 70.38C321.119 71.4 320.835 72.6467 320.835 74.12C320.835 75.65 321.119 76.9533 321.685 78.03C322.252 79.05 323.017 79.815 323.98 80.325C324.944 80.835 325.992 81.09 327.125 81.09ZM328.23 112.03C330.497 112.03 332.48 111.803 334.18 111.35C335.88 110.897 337.212 110.273 338.175 109.48C339.139 108.743 339.62 107.893 339.62 106.93C339.62 105.513 338.997 104.607 337.75 104.21C336.504 103.87 334.662 103.7 332.225 103.7H326.955C325.425 103.7 324.15 103.643 323.13 103.53C322.167 103.417 321.289 103.275 320.495 103.105C319.419 103.785 318.654 104.437 318.2 105.06C317.747 105.74 317.52 106.477 317.52 107.27C317.52 108.8 318.484 109.962 320.41 110.755C322.337 111.605 324.944 112.03 328.23 112.03ZM381.917 103.02C377.554 103.02 373.587 102.17 370.017 100.47C366.504 98.7133 363.699 96.1917 361.602 92.905C359.562 89.5617 358.542 85.5667 358.542 80.92C358.542 76.33 359.591 72.3917 361.687 69.105C363.784 65.7617 366.504 63.2117 369.847 61.455C373.191 59.6983 376.732 58.82 380.472 58.82C384.836 58.82 388.491 59.7267 391.437 61.54C394.384 63.2967 396.594 65.705 398.067 68.765C399.597 71.7683 400.362 75.1967 400.362 79.05C400.362 80.1833 400.277 81.2883 400.107 82.365C399.994 83.385 399.881 84.15 399.767 84.66H367.807V76.245H391.352L389.397 78.625C389.397 75.225 388.661 72.675 387.187 70.975C385.771 69.2183 383.674 68.34 380.897 68.34C378.857 68.34 377.072 68.7933 375.542 69.7C374.012 70.6067 372.822 71.995 371.972 73.865C371.122 75.735 370.697 78.0867 370.697 80.92C370.697 83.81 371.207 86.19 372.227 88.06C373.247 89.8733 374.721 91.2333 376.647 92.14C378.574 93.0467 380.897 93.5 383.617 93.5C385.544 93.5 387.357 93.245 389.057 92.735C390.814 92.225 392.627 91.4883 394.497 90.525L398.662 98.09C396.226 99.62 393.534 100.838 390.587 101.745C387.641 102.595 384.751 103.02 381.917 103.02ZM437.814 103.02C433.337 103.02 429.767 102.255 427.104 100.725C424.497 99.1383 422.599 96.9567 421.409 94.18C420.219 91.4033 419.624 88.1733 419.624 84.49V69.615H409.084V60.35L420.219 59.84L421.834 46.92H432.119V59.84H449.969V69.615H432.119V84.405C432.119 86.5017 432.431 88.2017 433.054 89.505C433.677 90.8083 434.641 91.7717 435.944 92.395C437.247 92.9617 438.919 93.245 440.959 93.245C442.602 93.245 444.104 93.1033 445.464 92.82C446.824 92.5367 448.127 92.1683 449.374 91.715L451.584 100.725C449.714 101.292 447.646 101.802 445.379 102.255C443.169 102.765 440.647 103.02 437.814 103.02ZM462.091 102V46.58H480.706C484.559 46.58 488.016 47.005 491.076 47.855C494.136 48.6483 496.544 50.0367 498.301 52.02C500.114 54.0033 501.021 56.78 501.021 60.35C501.021 62.8433 500.256 65.2517 498.726 67.575C497.196 69.8983 494.787 71.485 491.501 72.335V72.675C495.467 73.355 498.471 74.7717 500.511 76.925C502.551 79.0217 503.571 81.94 503.571 85.68C503.571 89.42 502.636 92.5083 500.766 94.945C498.896 97.325 496.346 99.11 493.116 100.3C489.942 101.433 486.344 102 482.321 102H462.091ZM474.586 68.85H480.111C483.171 68.85 485.381 68.255 486.741 67.065C488.101 65.8183 488.781 64.1467 488.781 62.05C488.781 60.01 488.072 58.565 486.656 57.715C485.296 56.8083 483.142 56.355 480.196 56.355H474.586V68.85ZM474.586 92.225H481.301C484.701 92.225 487.222 91.6017 488.866 90.355C490.509 89.1083 491.331 87.2383 491.331 84.745C491.331 82.3083 490.509 80.5517 488.866 79.475C487.222 78.3983 484.701 77.86 481.301 77.86H474.586V92.225ZM516.628 102V59.84H526.828L527.848 69.02H528.103C530.199 65.5633 532.721 63.0133 535.668 61.37C538.671 59.67 541.844 58.82 545.188 58.82C547.058 58.82 548.559 58.9617 549.693 59.245C550.883 59.5283 552.101 59.9533 553.348 60.52L550.798 70.975C549.494 70.5783 548.304 70.295 547.228 70.125C546.208 69.8983 544.904 69.785 543.318 69.785C540.711 69.785 538.133 70.55 535.583 72.08C533.089 73.61 530.936 76.2733 529.123 80.07V102H516.628ZM576.774 103.02C573.941 103.02 571.476 102.453 569.379 101.32C567.339 100.187 565.753 98.6567 564.619 96.73C563.486 94.8033 562.919 92.65 562.919 90.27C562.919 85.5667 565.044 81.9683 569.294 79.475C573.601 76.9817 580.741 75.4517 590.714 74.885C590.544 73.5817 590.119 72.4767 589.439 71.57C588.759 70.6633 587.768 69.9833 586.464 69.53C585.218 69.02 583.631 68.765 581.704 68.765C580.344 68.765 578.984 68.935 577.624 69.275C576.264 69.5583 574.848 70.0117 573.374 70.635C571.958 71.2017 570.456 71.8817 568.869 72.675L564.449 64.515C566.376 63.3817 568.388 62.39 570.484 61.54C572.638 60.69 574.848 60.0383 577.114 59.585C579.438 59.075 581.789 58.82 584.169 58.82C588.136 58.82 591.536 59.5283 594.369 60.945C597.203 62.305 599.384 64.4017 600.914 67.235C602.444 70.0117 603.209 73.5533 603.209 77.86V102H593.009L592.074 97.24H591.734C589.638 98.8267 587.314 100.187 584.764 101.32C582.214 102.453 579.551 103.02 576.774 103.02ZM580.769 93.33C582.639 93.33 584.396 92.9617 586.039 92.225C587.683 91.4317 589.241 90.4683 590.714 89.335V82.365C586.578 82.5917 583.348 83.0167 581.024 83.64C578.758 84.2633 577.171 85.0567 576.264 86.02C575.358 86.9833 574.904 88.0883 574.904 89.335C574.904 90.185 575.131 90.9217 575.584 91.545C576.094 92.1683 576.774 92.6217 577.624 92.905C578.531 93.1883 579.579 93.33 580.769 93.33ZM632.331 102V69.615H615.331V59.84H644.826V102H632.331ZM638.026 53.21C635.646 53.21 633.663 52.53 632.076 51.17C630.49 49.7533 629.696 47.9117 629.696 45.645C629.696 43.3217 630.49 41.4517 632.076 40.035C633.663 38.5617 635.646 37.825 638.026 37.825C640.463 37.825 642.446 38.5617 643.976 40.035C645.563 41.4517 646.356 43.3217 646.356 45.645C646.356 47.9117 645.563 49.7533 643.976 51.17C642.446 52.53 640.463 53.21 638.026 53.21ZM665.788 102V59.84H675.988L676.923 65.45H677.263C679.076 63.6367 681.145 62.0783 683.468 60.775C685.848 59.4717 688.625 58.82 691.798 58.82C696.558 58.82 700.043 60.35 702.253 63.41C704.463 66.47 705.568 70.6633 705.568 75.99V102H693.073V77.605C693.073 74.7717 692.591 72.7033 691.628 71.4C690.721 70.0967 689.135 69.445 686.868 69.445C685.168 69.445 683.666 69.8417 682.363 70.635C681.116 71.3717 679.756 72.4483 678.283 73.865V102H665.788ZM736.135 103.02C733.245 103.02 730.865 102.057 728.995 100.13C727.181 98.2033 726.275 95.8517 726.275 93.075C726.275 90.2983 727.181 87.9467 728.995 86.02C730.865 84.0367 733.245 83.045 736.135 83.045C739.081 83.045 741.461 84.0367 743.275 86.02C745.088 87.9467 745.995 90.2983 745.995 93.075C745.995 95.8517 745.088 98.2033 743.275 100.13C741.461 102.057 739.081 103.02 736.135 103.02Z" fill="black"/>
</g>
<defs>
<clipPath id="clip0_94_2">
<rect width="762" height="138" fill="white"/>
</clipPath>
</defs>
</svg>
