<svg width="937" height="316" viewBox="0 0 937 316" fill="none" xmlns="http://www.w3.org/2000/svg">
<rect width="937" height="316" rx="20" fill="#192029"/>
<path d="M147 94.7735C153.188 91.2008 160.812 91.2008 167 94.7735L206.756 117.726C212.944 121.299 216.756 127.902 216.756 135.047V180.953C216.756 188.098 212.944 194.701 206.756 198.273L167 221.227C160.812 224.799 153.188 224.799 147 221.227L107.244 198.274C101.056 194.701 97.2442 188.098 97.2442 180.953V135.047C97.2442 127.902 101.056 121.299 107.244 117.726L147 94.7735Z" fill="white"/>
<path d="M151.903 163.247C151.903 159.534 149.845 156.126 146.559 154.397L111.009 135.698C107.68 133.947 103.682 136.361 103.682 140.123V182.248C103.682 185.828 105.596 189.136 108.7 190.919L144.413 211.438C147.746 213.353 151.903 210.947 151.903 207.102V163.247Z" fill="#192029"/>
<path d="M244.29 191V135.58H262.905C266.758 135.58 270.215 136.005 273.275 136.855C276.335 137.648 278.743 139.037 280.5 141.02C282.313 143.003 283.22 145.78 283.22 149.35C283.22 151.843 282.455 154.252 280.925 156.575C279.395 158.898 276.987 160.485 273.7 161.335V161.675C277.667 162.355 280.67 163.772 282.71 165.925C284.75 168.022 285.77 170.94 285.77 174.68C285.77 178.42 284.835 181.508 282.965 183.945C281.095 186.325 278.545 188.11 275.315 189.3C272.142 190.433 268.543 191 264.52 191H244.29ZM256.785 157.85H262.31C265.37 157.85 267.58 157.255 268.94 156.065C270.3 154.818 270.98 153.147 270.98 151.05C270.98 149.01 270.272 147.565 268.855 146.715C267.495 145.808 265.342 145.355 262.395 145.355H256.785V157.85ZM256.785 181.225H263.5C266.9 181.225 269.422 180.602 271.065 179.355C272.708 178.108 273.53 176.238 273.53 173.745C273.53 171.308 272.708 169.552 271.065 168.475C269.422 167.398 266.9 166.86 263.5 166.86H256.785V181.225ZM307.922 192.02C303.105 192.02 299.62 190.49 297.467 187.43C295.313 184.37 294.237 180.177 294.237 174.85V148.84H306.732V173.235C306.732 176.068 307.157 178.137 308.007 179.44C308.913 180.743 310.528 181.395 312.852 181.395C314.438 181.395 315.855 181.055 317.102 180.375C318.348 179.695 319.68 178.42 321.097 176.55V148.84H333.592V191H323.392L322.457 184.965H322.117C320.247 187.062 318.178 188.762 315.912 190.065C313.645 191.368 310.982 192.02 307.922 192.02ZM361.694 192.02C356.367 192.02 352.06 190.065 348.774 186.155C345.544 182.188 343.929 176.777 343.929 169.92C343.929 165.33 344.779 161.392 346.479 158.105C348.235 154.818 350.502 152.297 353.279 150.54C356.055 148.727 358.945 147.82 361.949 147.82C364.272 147.82 366.284 148.217 367.984 149.01C369.684 149.803 371.214 150.908 372.574 152.325H372.914L372.319 145.78V131.415H384.814V191H374.614L373.679 186.665H373.424C371.894 188.195 370.08 189.47 367.984 190.49C365.944 191.51 363.847 192.02 361.694 192.02ZM364.924 181.82C366.34 181.82 367.644 181.537 368.834 180.97C370.08 180.347 371.242 179.327 372.319 177.91V160.825C371.185 159.805 370.024 159.097 368.834 158.7C367.7 158.247 366.51 158.02 365.264 158.02C363.734 158.02 362.317 158.445 361.014 159.295C359.71 160.145 358.662 161.448 357.869 163.205C357.132 164.905 356.764 167.087 356.764 169.75C356.764 173.887 357.472 176.947 358.889 178.93C360.305 180.857 362.317 181.82 364.924 181.82ZM414.445 208.935C410.762 208.935 407.475 208.538 404.585 207.745C401.752 207.008 399.485 205.847 397.785 204.26C396.142 202.673 395.32 200.633 395.32 198.14C395.32 196.44 395.859 194.882 396.935 193.465C398.069 192.048 399.712 190.802 401.865 189.725V189.385C400.675 188.592 399.655 187.628 398.805 186.495C398.012 185.362 397.615 183.917 397.615 182.16C397.615 180.743 398.069 179.327 398.975 177.91C399.939 176.493 401.157 175.275 402.63 174.255V173.915C401.1 172.895 399.797 171.45 398.72 169.58C397.644 167.71 397.105 165.557 397.105 163.12C397.105 159.72 397.927 156.887 399.57 154.62C401.27 152.353 403.48 150.653 406.2 149.52C408.977 148.387 411.952 147.82 415.125 147.82C417.732 147.82 420.055 148.16 422.095 148.84H439.18V158.02H430.68C431.19 158.643 431.615 159.465 431.955 160.485C432.352 161.448 432.55 162.468 432.55 163.545C432.55 166.775 431.757 169.438 430.17 171.535C428.64 173.575 426.572 175.105 423.965 176.125C421.359 177.145 418.412 177.655 415.125 177.655C414.332 177.655 413.425 177.598 412.405 177.485C411.385 177.315 410.365 177.088 409.345 176.805C408.665 177.258 408.184 177.712 407.9 178.165C407.617 178.618 407.475 179.213 407.475 179.95C407.475 181.027 408.042 181.82 409.175 182.33C410.365 182.84 412.179 183.095 414.615 183.095H422.435C427.989 183.095 432.21 183.917 435.1 185.56C438.047 187.203 439.52 189.923 439.52 193.72C439.52 196.667 438.5 199.273 436.46 201.54C434.42 203.863 431.502 205.677 427.705 206.98C423.965 208.283 419.545 208.935 414.445 208.935ZM415.125 170.09C416.315 170.09 417.392 169.835 418.355 169.325C419.319 168.815 420.084 168.05 420.65 167.03C421.217 165.953 421.5 164.65 421.5 163.12C421.5 161.647 421.217 160.4 420.65 159.38C420.084 158.36 419.319 157.595 418.355 157.085C417.392 156.518 416.315 156.235 415.125 156.235C413.992 156.235 412.944 156.518 411.98 157.085C411.017 157.595 410.252 158.36 409.685 159.38C409.119 160.4 408.835 161.647 408.835 163.12C408.835 164.65 409.119 165.953 409.685 167.03C410.252 168.05 411.017 168.815 411.98 169.325C412.944 169.835 413.992 170.09 415.125 170.09ZM416.23 201.03C418.497 201.03 420.48 200.803 422.18 200.35C423.88 199.897 425.212 199.273 426.175 198.48C427.139 197.743 427.62 196.893 427.62 195.93C427.62 194.513 426.997 193.607 425.75 193.21C424.504 192.87 422.662 192.7 420.225 192.7H414.955C413.425 192.7 412.15 192.643 411.13 192.53C410.167 192.417 409.289 192.275 408.495 192.105C407.419 192.785 406.654 193.437 406.2 194.06C405.747 194.74 405.52 195.477 405.52 196.27C405.52 197.8 406.484 198.962 408.41 199.755C410.337 200.605 412.944 201.03 416.23 201.03ZM469.917 192.02C465.554 192.02 461.587 191.17 458.017 189.47C454.504 187.713 451.699 185.192 449.602 181.905C447.562 178.562 446.542 174.567 446.542 169.92C446.542 165.33 447.591 161.392 449.687 158.105C451.784 154.762 454.504 152.212 457.847 150.455C461.191 148.698 464.732 147.82 468.472 147.82C472.836 147.82 476.491 148.727 479.437 150.54C482.384 152.297 484.594 154.705 486.067 157.765C487.597 160.768 488.362 164.197 488.362 168.05C488.362 169.183 488.277 170.288 488.107 171.365C487.994 172.385 487.881 173.15 487.767 173.66H455.807V165.245H479.352L477.397 167.625C477.397 164.225 476.661 161.675 475.187 159.975C473.771 158.218 471.674 157.34 468.897 157.34C466.857 157.34 465.072 157.793 463.542 158.7C462.012 159.607 460.822 160.995 459.972 162.865C459.122 164.735 458.697 167.087 458.697 169.92C458.697 172.81 459.207 175.19 460.227 177.06C461.247 178.873 462.721 180.233 464.647 181.14C466.574 182.047 468.897 182.5 471.617 182.5C473.544 182.5 475.357 182.245 477.057 181.735C478.814 181.225 480.627 180.488 482.497 179.525L486.662 187.09C484.226 188.62 481.534 189.838 478.587 190.745C475.641 191.595 472.751 192.02 469.917 192.02ZM525.814 192.02C521.337 192.02 517.767 191.255 515.104 189.725C512.497 188.138 510.599 185.957 509.409 183.18C508.219 180.403 507.624 177.173 507.624 173.49V158.615H497.084V149.35L508.219 148.84L509.834 135.92H520.119V148.84H537.969V158.615H520.119V173.405C520.119 175.502 520.431 177.202 521.054 178.505C521.677 179.808 522.641 180.772 523.944 181.395C525.247 181.962 526.919 182.245 528.959 182.245C530.602 182.245 532.104 182.103 533.464 181.82C534.824 181.537 536.127 181.168 537.374 180.715L539.584 189.725C537.714 190.292 535.646 190.802 533.379 191.255C531.169 191.765 528.647 192.02 525.814 192.02ZM550.091 191V135.58H568.706C572.559 135.58 576.016 136.005 579.076 136.855C582.136 137.648 584.544 139.037 586.301 141.02C588.114 143.003 589.021 145.78 589.021 149.35C589.021 151.843 588.256 154.252 586.726 156.575C585.196 158.898 582.787 160.485 579.501 161.335V161.675C583.467 162.355 586.471 163.772 588.511 165.925C590.551 168.022 591.571 170.94 591.571 174.68C591.571 178.42 590.636 181.508 588.766 183.945C586.896 186.325 584.346 188.11 581.116 189.3C577.942 190.433 574.344 191 570.321 191H550.091ZM562.586 157.85H568.111C571.171 157.85 573.381 157.255 574.741 156.065C576.101 154.818 576.781 153.147 576.781 151.05C576.781 149.01 576.072 147.565 574.656 146.715C573.296 145.808 571.142 145.355 568.196 145.355H562.586V157.85ZM562.586 181.225H569.301C572.701 181.225 575.222 180.602 576.866 179.355C578.509 178.108 579.331 176.238 579.331 173.745C579.331 171.308 578.509 169.552 576.866 168.475C575.222 167.398 572.701 166.86 569.301 166.86H562.586V181.225ZM604.628 191V148.84H614.828L615.848 158.02H616.103C618.199 154.563 620.721 152.013 623.668 150.37C626.671 148.67 629.844 147.82 633.188 147.82C635.058 147.82 636.559 147.962 637.693 148.245C638.883 148.528 640.101 148.953 641.348 149.52L638.798 159.975C637.494 159.578 636.304 159.295 635.228 159.125C634.208 158.898 632.904 158.785 631.318 158.785C628.711 158.785 626.133 159.55 623.583 161.08C621.089 162.61 618.936 165.273 617.123 169.07V191H604.628ZM664.774 192.02C661.941 192.02 659.476 191.453 657.379 190.32C655.339 189.187 653.753 187.657 652.619 185.73C651.486 183.803 650.919 181.65 650.919 179.27C650.919 174.567 653.044 170.968 657.294 168.475C661.601 165.982 668.741 164.452 678.714 163.885C678.544 162.582 678.119 161.477 677.439 160.57C676.759 159.663 675.768 158.983 674.464 158.53C673.218 158.02 671.631 157.765 669.704 157.765C668.344 157.765 666.984 157.935 665.624 158.275C664.264 158.558 662.848 159.012 661.374 159.635C659.958 160.202 658.456 160.882 656.869 161.675L652.449 153.515C654.376 152.382 656.388 151.39 658.484 150.54C660.638 149.69 662.848 149.038 665.114 148.585C667.438 148.075 669.789 147.82 672.169 147.82C676.136 147.82 679.536 148.528 682.369 149.945C685.203 151.305 687.384 153.402 688.914 156.235C690.444 159.012 691.209 162.553 691.209 166.86V191H681.009L680.074 186.24H679.734C677.638 187.827 675.314 189.187 672.764 190.32C670.214 191.453 667.551 192.02 664.774 192.02ZM668.769 182.33C670.639 182.33 672.396 181.962 674.039 181.225C675.683 180.432 677.241 179.468 678.714 178.335V171.365C674.578 171.592 671.348 172.017 669.024 172.64C666.758 173.263 665.171 174.057 664.264 175.02C663.358 175.983 662.904 177.088 662.904 178.335C662.904 179.185 663.131 179.922 663.584 180.545C664.094 181.168 664.774 181.622 665.624 181.905C666.531 182.188 667.579 182.33 668.769 182.33ZM720.331 191V158.615H703.331V148.84H732.826V191H720.331ZM726.026 142.21C723.646 142.21 721.663 141.53 720.076 140.17C718.49 138.753 717.696 136.912 717.696 134.645C717.696 132.322 718.49 130.452 720.076 129.035C721.663 127.562 723.646 126.825 726.026 126.825C728.463 126.825 730.446 127.562 731.976 129.035C733.563 130.452 734.356 132.322 734.356 134.645C734.356 136.912 733.563 138.753 731.976 140.17C730.446 141.53 728.463 142.21 726.026 142.21ZM753.788 191V148.84H763.988L764.923 154.45H765.263C767.076 152.637 769.145 151.078 771.468 149.775C773.848 148.472 776.625 147.82 779.798 147.82C784.558 147.82 788.043 149.35 790.253 152.41C792.463 155.47 793.568 159.663 793.568 164.99V191H781.073V166.605C781.073 163.772 780.591 161.703 779.628 160.4C778.721 159.097 777.135 158.445 774.868 158.445C773.168 158.445 771.666 158.842 770.363 159.635C769.116 160.372 767.756 161.448 766.283 162.865V191H753.788ZM824.135 192.02C821.245 192.02 818.865 191.057 816.995 189.13C815.181 187.203 814.275 184.852 814.275 182.075C814.275 179.298 815.181 176.947 816.995 175.02C818.865 173.037 821.245 172.045 824.135 172.045C827.081 172.045 829.461 173.037 831.275 175.02C833.088 176.947 833.995 179.298 833.995 182.075C833.995 184.852 833.088 187.203 831.275 189.13C829.461 191.057 827.081 192.02 824.135 192.02Z" fill="white"/>
</svg>
