<svg width="176" height="176" viewBox="0 0 176 176" fill="none" xmlns="http://www.w3.org/2000/svg">
<g clip-path="url(#clip0_104_2)">
<path d="M78 5.7735C84.188 2.20085 91.812 2.20085 98 5.7735L154.21 38.2265C160.398 41.7992 164.21 48.4017 164.21 55.547V120.453C164.21 127.598 160.398 134.201 154.21 137.773L98 170.227C91.812 173.799 84.188 173.799 78 170.227L21.7898 137.773C15.6017 134.201 11.7898 127.598 11.7898 120.453V55.547C11.7898 48.4017 15.6017 41.7992 21.7898 38.2265L78 5.7735Z" fill="white"/>
<path d="M81.5 93.0293C81.5 89.3156 79.442 85.9078 76.1553 84.179L27.3276 58.4958C23.9981 56.7445 20 59.1589 20 62.9209V120.519C20 124.099 21.9139 127.406 25.0182 129.19L74.0091 157.338C77.3424 159.253 81.5 156.847 81.5 153.002V93.0293Z" fill="black"/>
</g>
<defs>
<clipPath id="clip0_104_2">
<rect width="176" height="176" fill="white"/>
</clipPath>
</defs>
</svg>
